<svg id="e1DT59NVnKB1" xmlns="http://www.w3.org/2000/svg" xmlns:xlink="http://www.w3.org/1999/xlink" viewBox="0 0 300 382" shape-rendering="geometricPrecision" text-rendering="geometricPrecision"><g transform="matrix(.1 0 0-.1 0 382)"><g><g id="e1DT59NVnKB4" transform="translate(-6.02582 0)"><g><g transform="matrix(.999962 0.008768-.008768 0.999962 23.476762-13.145952)"><g transform="translate(3.00177 0)"><g transform="matrix(.999977 0.006847-.006847 0.999977 18.980774-10.259998)"><path d="M1580,3782c-19-8-72-16-116-17-45-1-85-5-91-8-5-3-38-15-73-28-36-12-74-29-85-39s-33-25-50-33c-16-9-43-27-59-41s-34-26-41-26c-6,0-30-20-53-45s-46-45-52-45c-5,0-10-7-10-15s-7-15-15-15c-10,0-15-10-15-29s-8-35-21-45c-12-8-18-19-15-25c4-5-6-17-21-25s-23-15-18-16c6,0,3-5-5-10-11-7-12-10-2-10c9,0,11-7,7-20s-2-20,7-20c10-1,9-4-3-13-18-14-17-7-23-235-5-180,3-340,19-374c6-15,2-18-23-18-32,0-58-22-47-40c4-6,1-9-5-8-13,3-49-93-50-131c0-36,40-150,67-191c13-19,23-42,23-51c0-30,40-69,70-69c16,0,32,5,35,10c13,22,23,7,35-52c6-35,23-94,36-132c15-44,24-92,24-130c0-68,13-103,25-67c3,11,3,30,0,41-10,31,8,24,28-11c10-18,20-29,24-26c3,4-6,25-21,47-15,23-26,53-26,74c0,19-4,38-10,41-5,3-10,15-10,26c0,10-4,19-10,19-5,0-10,15-10,33c0,19-3,37-7,41s-9,18-11,32c-1,14-14,44-28,65-24,38-25,39-49,23-21-14-27-14-45-1-11,7-17,17-14,20c4,4,2,12-3,19-6,7-13,26-17,42-4,15-10,26-13,22-11-10-35,65-42,129-7,69,3,121,30,151c15,16,16,23,7,32-10,10-10,15,2,22c10,6,20,5,30-5c13-14,15-25,19-97c0-16,6-28,12-28c7,0,10,48,8,143-1,94,2,151,10,165c11,20,9,22-14,22-15,0-23,4-20,10c3,5,7,86,7,179c1,94,5,168,9,166c3-3,14,4,24,15c16,17,16,20,2,20-8,0-17-6-20-12-2-7-8-10-12-6s-3,12,1,19s9,22,10,33c3,36,13,69,22,75c10,7,36,52,37,63c0,4,6,13,13,20c6,6,12,18,12,25c0,17,37,36,45,23c4-6,11-7,17-4c6,4,2,11-11,18l-22,12l21,19c11,10,20,13,20,7c0-7-5-12-12-12-6,0-9-3-6-6s15,1,27,8c21,13,29,48,11,48s-10,16,9,17c14,1,17-3,14-18-6-23,6-24,33-4c17,13,17,14,2,15-10,0-18,7-18,16c0,11,6,14,21,9c19-6,21-4,17,13-5,17,1,23,27,32c17,6,39,8,48,4c10-3,18-1,18,5c4,36,16,51,41,51c11,0,32,8,46,19c36,24,72,32,108,23c16-4,45-5,64-1c20,4,26,7,15,9-15,1-13,4,10,11c17,5,31,5,33,0s17-5,36,0c18,5,44,9,57,8c13,0,34,2,46,6c19,6,21,4,17-17-2-12-2-17,2-10c3,6,12,12,20,12c9,0,13-4,10-9-4-5,19-17,49-26c56-18,68-30,38-38-10-3,2-6,27-7l45-3-35-7-35-7l34-2c33-1,34-2,15-16-10-8-14-15-7-15c6,0,15,5,18,10c3,6,20,10,36,10c17,0,28-4,25-9s6-12,21-16c21-5,24-8,13-15-10-6-23-4-37,5-12,8-28,15-35,15-12,0,19-22,52-36c48-20,78-39,74-46-3-4,4-8,15-8c21,0,51-24,51-41c0-6-10-8-22-5-13,3-9-1,8-9c20-9,36-26,43-46c14-42,15-41-11-34-19,5-17,0,12-25c36-31,47-72,27-97-6-9-6-13,2-13s10-32,6-112c-3-62-5-131-4-153c3-136-1-238-10-295-14-82-14-177-1-185c6-4,10,6,10,22c0,15,5,45,10,65c0,0,13,37,43,31c35-6,67-29,67-47c0-6-5-3-11,7-10,17-49,24-49,9c0-5,12-19,26-33c25-23,25-27,20-117-4-80-8-98-28-120-13-15-27-30-32-33-5-4-10-24-12-45-3-38-24-64-50-64-21,0-44,29-37,47c4,11,3,14-5,9-7-4-12-18-12-31s-7-31-16-40c-10-9-18-26-20-38-7-56-25-130-35-150-7-12-12-24-11-27s-3-21-8-40c-10-38-9-145,2-156c9-8,15,22,22,103c3,35,15,89,26,122c11,32,25,88,32,125l12,66l39-7c31-5,42-1,62,17c14,13,25,31,25,41s14,39,30,66c36,58,64,186,54,251-9,60-46,102-90,102-38,0-38-1-24,34c11,31,17,521,6,554-5,16-3,24,8,28c21,8,20,33-4,69-14,21-16,31-8,37c9,5,8,12-4,25-8,10-28,44-44,77-19,38-41,67-64,81-19,13-51,41-71,63-20,21-56,49-80,61s-62,33-84,46c-132,81-199,101-255,77Z"/><path d="M1048,2730c-44-38-77-94-65-107c9-8,57,39,57,55c0,15,68,11,202-9c36-6,73-12,82-13c8-1,19-5,22-9c4-4,12-7,18-7s3,5-6,11c-10,5-18,15-18,21c0,5,8,7,18,4c15-5,15-5,1,6-9,7-18,19-20,27-5,15-21,17-166,21-87,2-92,3-82,21c14,26,10,24-43-21Zm122-31c0-5-16-9-35-9-36,0-48,16-17,22c23,5,52-2,52-13Z"/><path d="M1103,2609c-24-12-40-25-37-30s0-9-5-9c-6,0-11-7-11-16c0-8,5-12,10-9c6,4,16,3,23-2c19-14,93.103342-29.763017,103-30c101.068997-2.42017,4.421731,11-35,18s-41,15-41,18c0,7,54,41,64,41c3,0,6-11,6-24c0-28,3-30,42-40c24-5,30-2,44,26c9,18,17,34,18,35c2,2,20-6,41-17c39-20,37-22-19-35-147.335572-27.738215-81.96461-27.078006,23-9c53,9,52,31-4,59-61,29-145,32-195,6-22-11-44-21-47-21-13,0,13,20,52,39c22,11,33,20,25,21-8,0-34-9-57-21Z"/><path d="M1300,2616c14-7,36-16,50-20c19-5,16-2-10,13-19,11-42,20-50,20s-4-6,10-13Z"/><path d="M807,2363c10-29,24-43,43-43c23,0,53-35,66-79c10-32,12-33,13-10c1,37-19,89-35,89-7,0-29,14-47,30-40,34-49,37-40,13Z"/></g><path d="M1100,1761c0-17,32-66,56-84c22-17,23-17,17,0-4,10-17,27-30,39s-23,26-23,32-4,14-10,17c-5,3-10,2-10-4Z"/><path d="M1890,1719c0-9-10-21-23-28s-24-19-24-27c0-18,0-19,35,14c22,20,28,33,21,43-7,12-9,11-9-2Z"/><path d="M1765,1652c-16-9-32-18-34-19-2-2-2-6,2-9c6-7,75,24,83,37c9,15-19,10-51-9Z"/><path d="M1316,1632c-9-14,113-43,198-47c59-3,76,0,76,10s-13,13-49,10c-44-3-140,12-197,30-12,4-24,2-28-3Z"/><path d="M1647,1616c-49-12-54-26-9-26c14,0,22-3,18-7-11-11-103-18-216-16-86,2-101,0-85-10c13-8,68-12,156-12c143,0,169,7,169,46c0,12,7,19,20,19c11,0,20,5,20,10c0,12-9,11-73-4Z"/></g><path d="M1545,3650c-10-11-22-20-27-20-6,0-21-9-35-20s-20-20-13-20s35,18,62,40c28,22,46,40,41,40-6,0-18-9-28-20Z"/><path d="M1555,3544c-36-18-51-32-43-39c2-3,14,3,26,12c11,10,29,23,39,30c26,17,13,16-22-3Z"/><path d="M1629,3534c-22-12-21-13,16-7c22,3,44,9,48,13c15,13-38,8-64-6Z"/><path d="M1308,3316c-16-5-28-14-28-18c0-5,12-5,28-2c32,8,35,10,31,21-2,5-16,4-31-1Z" transform="translate(3.001771 0)"/><path d="M1438,3303c0-5-2-15-2-23-1-11-13-15-43-15-23,0-45-3-49-7-4-5,20-8,53-8s63,3,67,8c4,4,26,15,49,24c44,18,27,25-18,8-20-8-31,5-31,5s-23,20-26,8Z" transform="translate(3.00177 0)"/><path d="M1543,3267c-29-6-53-14-53-18c0-15,74-9,94,6c27,20,19,22-41,12Z" transform="translate(3.00177 0)"/><path d="M1550,3221c8-5,34-12,57-16c24-4,45-11,49-16c8-14,24-11,24,6c0,8,7,15,15,15s15,5,15,10c0,14-27,12-33-2-4-9-8-10-14-3-4,6-68,13-68,13s-55-1-45-7Z" transform="translate(3.00177 0)"/><path d="M1831,3214c-12-9-33-14-47-11-13,2-24,0-24-4c0-5,9-9,21-9c34,0,10-20-33-26-30-5-36-9-25-16c22-12,66,1,80,23c7,11,17,19,23,19c13,0,39,28,32,35-2,3-14-3-27-11Z" transform="translate(3.00177 0)"/><path d="M972,3154c-12-24-17-44-12-44c6,0,16,13,21,29c6,16,17,28,26,27c9,0,18,5,21,13c3,9,0,11-8,6-7-4-15-3-19,2-3,6-16-9-29-33Z" transform="translate(3.00177 0)"/><path d="M1884,3180c-15-6-13-8,11-15l30-8-25-7-25-8l28-1c43-2,117,20,117,34s-101,17-136,5Z" transform="translate(3.00177 0)"/><path d="M925,3068c-8-8-6-22,4-45c15-33,39-48,26-15-4,9-7,29-6,45c1,28-7,34-24,15Z" transform="translate(3.00177 0)"/><path d="M2070,3037c0-9-4-17-8-17-5,0-7-13-4-30c2-16,8-30,12-30c11,0,19,73,9,85-6,5-9,2-9-8Z" transform="translate(3.00177 0)"/><path d="M945,2937c-15-18-15-47,1-47c9,0,14,11,14,30c0,33-1,34-15,17Z" transform="translate(3.00177 0)"/><path d="M2056,2903c9-36,12-39,26-25s2,42-21,50c-8,3-10-4-5-25Z" transform="translate(3.00177 0)"/><path d="M911,2856c-16-17-19-25-9-28c18-7,58,9,58,24c0,9-3,9-12,0-7-7-19-12-27-12-11,0-9,6,9,20c14,11,20,20,14,20s-21-11-33-24Z" transform="translate(3.00177 0)"/></g><path d="M1891,2761c-11-7-5-13,24-25c20-9,42-16,47-16s6-5,3-10c-3-6,3-14,14-18s20-11,20-17c0-5,4-11,10-13s11,5,11,16c0,23-45,71-78,83-29,11-33,11-51,0Z"/><path d="M1751,2729c-63-8-100-26-73-36c10-4,10-8,1-20-11-13-7-14,27-8c21,4,61,14,88,22c26,8,67,15,90,15l41-1-24,20c-25,20-47,22-150,8Z"/><path d="M1707,2627c-18-6-33-21-42-44-19-46-21-43,20-43c22,0,38-6,41-15c9-22,23-18,17,5-4,15-14,20-39,20-19,0-34,3-34,8c1,4,19,19,40,34l40,28v-28c0-34,16-52,46-52c26,0,55,35,47,56-7,20,18,17,45-5c12-11,22-21,22-24s-10-8-22-12c-55-19-62-24-24-19c97,14,118,78,33,98-22,5-27,4-21-6s5-10-8,0c-18,15-116,14-161-1Zm121-35c3-10-26-11-66-3-2,1-1,5,2,9c8,13,59,8,64-6Z"/><path d="M1612,2259c-30-11-18-33,14-25c15,4,26,1,32-10s11-13,16-5c16,25-27,53-62,40Z"/><path d="M1405,2249c-4-6-5-12-4-14c6-4,40-8,69-6l25,2-25,14c-30,17-56,19-65,4Z"/><path d="M1515,2221c-25-5-27-8-12-14c30-12,57-8,57,8c0,8-3,14-7,14-5-1-21-4-38-8Z"/><g id="e1DT59NVnKB40"><path d="M1746,2033c-6-7-309-15-443-13-22,0-33-5-33-14c0-18,43-28,73-17c21,8,149,14,326,14c25,0,47-5,49-11c5-15,52,15,52,34c0,15-12,18-24,7Z"/></g><path d="M1434,1868c-9-14-3-16,46-18c105-4,140,0,140,15c0,13-15,15-90,14-50-1-93-6-96-11Z"/></g><path d="M2142,2458c2-13,9-23,17-23c23,0,24,23,1,35-19,10-21,9-18-12Z"/><path d="M855,2446c-15-11-17-18-9-26s14-7,23,4c20,24,9,39-14,22Z"/><path d="M2170,2344c-14-7-32-14-40-14s-20-16-26-35-7-35-3-35c5,0,9,6,9,14c0,16,49,52,66,48c6-1,19,7,29,18c22,24,4,26-35,4Z"/></g><path d="M942,1719c-23-12-47-30-53-40-15-28-47-138-55-186-5-36-10-43-29-43-24,0-223-99-410-205-60-34-164-84-231-110-136-53-178-79-154-95c19-12,44-4,92,28c23,15,46,22,58,19c11-3,26,1,33,8s27,16,45,20c17,3,34,10,37,14c2,5,31,21,62,37c32,16,67,37,77,47c11,9,25,17,32,17c15,0,73,30,92,48c17,15,25,16,16,1-5-8-1-8,14,0c11,6,22,17,26,26c3,8,21,15,21,15s34,14,57,31c37,26,44,28,53,15c10-13,13-13,27,4c9,10,13,21,10,25-4,4,3,4,15,1c19-6,25-2,34,20c7,20,12,25,18,15c6-9,14-3,30,23c12,20,19,40,16,46-4,6-2,16,3,23s13,37,18,67c7,52,8,53,18,28c5-16,13-28,18-28c4,0,5,7,2,15-9,23,5,65,22,65c11,0,14-10,13-45-2-25-6-45-11-45-4,0-8-7-8-16c0-24,67-159,90-179c11-10,20-25,20-33c0-17,207-222,224-222c6,0,19-9,29-20c9-11,24-20,32-20c26,0,17-16-20-36-19-10-35-22-35-27c0-4,11,0,24,8c18,12,44,15,97,13c63-3,74-6,73-20-1-10,2-18,7-18s9-8,9-17c1-22,27-59,36-51c3,4,1,21-5,40-6,18-13,50-16,71l-6,37h-58c-32,0-70,6-83,13-85,44-210,164-308,297l-55,74v133c0,82-4,133-10,133-5,0-29-10-53-21Z"/><path d="M2012,1567l3-162-34-70c-19-39-39-73-44-76-5-4-7-14-4-23c8-20-61-122-118-175-54-50-100-59-156-31-22,12-42,20-43,18-42-58-58-112-31-102c8,4,12,10,9,15s2,12,10,15c9,3,13,10,10,15-8,13,18,11,66-6c38-13,41-13,30,0-16,20,7,21,35,2c11-8,29-17,40-20c17-6,17-5-2,9-27,19-30,34-7,34c8,0,23,7,32,15c51,47,93,92,98,108c3,9,9,17,14,17s12,10,16,23c3,12,12,29,19,37c14,16,85,178,85,193c0,5,8,25,17,44c13,28,14,39,5,54-15,23-25,130-14,146c5,8,12,8,27-3s20-26,19-61c-1-45-1-45,16-23l18,23l11-21c6-11,11-30,11-42c0-35,60-140,80-140c21,0,30-19,31-68l1-37l11,31c11,28,14,30,38,20c14-6,24-17,22-24-3-7,1-10,10-6c10,3,18-2,22-15c3-12,15-21,25-21s20-7,24-15c3-8,12-15,21-15c8,0,15-3,15-8c0-4,24-18,52-31c29-13,73-38,98-55c50-35,96-63,185-111c33-18,87-49,119-69c59-36,96-46,96-26c0,13-57,50-313,198-114,67-233,141-265,164-31,24-70,53-87,65-16,13-47,31-69,42-34,17-42,28-70,102-51,135-67,161-120,197-26,17-53,32-58,32-6,0-8-63-6-163Z"/></g><path d="M1332,1008c-7-7-12-18-12-25c0-8,7-6,20,7c26,26,46,25,75-5c16-15,25-19,25-10c0,38-79,62-108,33Z"/><path d="M1360,966c0-19,27-28,33-11c7,15-1,25-20,25-7,0-13-6-13-14Z"/><g transform="translate(0 23.7034)"><path d="M1444,629c-3-5,6-9,19-9c35,0,53-25,41-58-13-36-39-39-69-6-28,31-33,25-9-11c19-29,55-33,78-9c19,19,4,76,4,76s-56,30-64,17Z"/></g><g transform="translate(0-476.2966)"><path d="M1444,629c-3-5,6-9,19-9c35,0,53-25,41-58-13-36-39-39-69-6-28,31-33,25-9-11c19-29,55-33,78-9c19,19,4,76,4,76s-56,30-64,17Z"/></g><path d="M2149,540c-12-15-15-34-12-64c3-26,1-46-6-50-6-4-11-20-11-35s-3-31-7-35c-4-3-8-14-9-24-1-9-8-43-14-75-11-50-11-60,2-73c17-18,66-26,74-13c3,5,9,9,14,9c4,0,0-25-9-55-19-60-16-125,5-125c20,0,25,16,14,42-12,26,7,84,34,108c9,7,16,18,16,25s9,15,21,18l21,6-23,30c-24,33-39,40-39,18c0-13-80-57-104-57-15,0-14,2,19,125c8,28,17,68,21,90s11,48,16,59c7,12,6,22-1,29-13,13-15,47-2,47c5,0,22-15,37-32c25-30,25-33,8-36-15-2-24-25-47-118-16-64-27-118-25-120c3-2,15,4,27,13c19,13,22,22,18,50-7,43,10,93,32,93c10,0,27-9,39-20s26-20,32-20c5,0,19-9,30-20c18-18,21-19,27-4c3,9,1,19-4,23-19,11,4,51,30,51c37,0,117-108,117-159c0-34,17-83,32-92c12-8,14-73,3-118-7-29-6-33,11-29c32,6,38,70,14,157-12,42-26,93-31,114-12,46-63,116-105,146-33,23-54,21-88-11-25-23-39-23-60,1-10,11-24,17-32,14-12-4-12,0,1,29c12,30,12,38-1,64-19,35-14,31-44,38-18,5-29,1-41-14Z"/></g><ellipse id="e1DT59NVnKB55" rx="8.877122" ry="0.571132" transform="matrix(.617839-.03649 0.058958 0.99826 123.135711 122.96543)" stroke-width="0"/><line x1="-4.254672" y1="-44.878761" x2="4.254672" y2="44.878761" transform="matrix(1.078643-.01231 0.01253 1.09791 156.862068 332.718172)" stroke="#000" stroke-width="3"/><line x1="1.702446" y1="-5.648218" x2="-1.702445" y2="5.648219" transform="translate(156.041686 291.346866)" stroke="#000" stroke-width="3"/>
<script><![CDATA[
!function(t,n){"object"==typeof exports&&"undefined"!=typeof module?module.exports=n():"function"==typeof __SVGATOR_DEFINE__&&__SVGATOR_DEFINE__.amd?__SVGATOR_DEFINE__(n):((t="undefined"!=typeof globalThis?globalThis:t||self).__SVGATOR_PLAYER__=t.__SVGATOR_PLAYER__||{},t.__SVGATOR_PLAYER__["5c7f360c"]=n())}(this,(function(){"use strict";function t(t,n){var e=Object.keys(t);if(Object.getOwnPropertySymbols){var r=Object.getOwnPropertySymbols(t);n&&(r=r.filter((function(n){return Object.getOwnPropertyDescriptor(t,n).enumerable}))),e.push.apply(e,r)}return e}function n(n){for(var e=1;e<arguments.length;e++){var r=null!=arguments[e]?arguments[e]:{};e%2?t(Object(r),!0).forEach((function(t){u(n,t,r[t])})):Object.getOwnPropertyDescriptors?Object.defineProperties(n,Object.getOwnPropertyDescriptors(r)):t(Object(r)).forEach((function(t){Object.defineProperty(n,t,Object.getOwnPropertyDescriptor(r,t))}))}return n}function e(t){return(e="function"==typeof Symbol&&"symbol"==typeof Symbol.iterator?function(t){return typeof t}:function(t){return t&&"function"==typeof Symbol&&t.constructor===Symbol&&t!==Symbol.prototype?"symbol":typeof t})(t)}function r(t,n){if(!(t instanceof n))throw new TypeError("Cannot call a class as a function")}function i(t,n){for(var e=0;e<n.length;e++){var r=n[e];r.enumerable=r.enumerable||!1,r.configurable=!0,"value"in r&&(r.writable=!0),Object.defineProperty(t,r.key,r)}}function o(t,n,e){return n&&i(t.prototype,n),e&&i(t,e),t}function u(t,n,e){return n in t?Object.defineProperty(t,n,{value:e,enumerable:!0,configurable:!0,writable:!0}):t[n]=e,t}function a(t){return(a=Object.setPrototypeOf?Object.getPrototypeOf:function(t){return t.__proto__||Object.getPrototypeOf(t)})(t)}function l(t,n){return(l=Object.setPrototypeOf||function(t,n){return t.__proto__=n,t})(t,n)}function s(){if("undefined"==typeof Reflect||!Reflect.construct)return!1;if(Reflect.construct.sham)return!1;if("function"==typeof Proxy)return!0;try{return Boolean.prototype.valueOf.call(Reflect.construct(Boolean,[],(function(){}))),!0}catch(t){return!1}}function f(t,n,e){return(f=s()?Reflect.construct:function(t,n,e){var r=[null];r.push.apply(r,n);var i=new(Function.bind.apply(t,r));return e&&l(i,e.prototype),i}).apply(null,arguments)}function c(t,n){if(n&&("object"==typeof n||"function"==typeof n))return n;if(void 0!==n)throw new TypeError("Derived constructors may only return object or undefined");return function(t){if(void 0===t)throw new ReferenceError("this hasn't been initialised - super() hasn't been called");return t}(t)}function h(t,n,e){return(h="undefined"!=typeof Reflect&&Reflect.get?Reflect.get:function(t,n,e){var r=function(t,n){for(;!Object.prototype.hasOwnProperty.call(t,n)&&null!==(t=a(t)););return t}(t,n);if(r){var i=Object.getOwnPropertyDescriptor(r,n);return i.get?i.get.call(e):i.value}})(t,n,e||t)}function v(t){return function(t){if(Array.isArray(t))return y(t)}(t)||function(t){if("undefined"!=typeof Symbol&&null!=t[Symbol.iterator]||null!=t["@@iterator"])return Array.from(t)}(t)||function(t,n){if(!t)return;if("string"==typeof t)return y(t,n);var e=Object.prototype.toString.call(t).slice(8,-1);"Object"===e&&t.constructor&&(e=t.constructor.name);if("Map"===e||"Set"===e)return Array.from(t);if("Arguments"===e||/^(?:Ui|I)nt(?:8|16|32)(?:Clamped)?Array$/.test(e))return y(t,n)}(t)||function(){throw new TypeError("Invalid attempt to spread non-iterable instance.\nIn order to be iterable, non-array objects must have a [Symbol.iterator]() method.")}()}function y(t,n){(null==n||n>t.length)&&(n=t.length);for(var e=0,r=new Array(n);e<n;e++)r[e]=t[e];return r}function g(t,n,e){if(Number.isInteger(t))return t;var r=Math.pow(10,n);return Math[e]((+t+Number.EPSILON)*r)/r}Number.isInteger||(Number.isInteger=function(t){return"number"==typeof t&&isFinite(t)&&Math.floor(t)===t}),Number.EPSILON||(Number.EPSILON=2220446049250313e-31);var d=p(Math.pow(10,-6));function p(t){var n=arguments.length>1&&void 0!==arguments[1]?arguments[1]:6;return g(t,n,"round")}function m(t,n){var e=arguments.length>2&&void 0!==arguments[2]?arguments[2]:d;return Math.abs(t-n)<e}p(Math.pow(10,-2)),p(Math.pow(10,-4));var b=Math.PI/180;function w(t){return t}function A(t,n,e){var r=1-e;return 3*e*r*(t*r+n*e)+e*e*e}function _(){var t=arguments.length>0&&void 0!==arguments[0]?arguments[0]:0,n=arguments.length>1&&void 0!==arguments[1]?arguments[1]:0,e=arguments.length>2&&void 0!==arguments[2]?arguments[2]:1,r=arguments.length>3&&void 0!==arguments[3]?arguments[3]:1;return t<0||t>1||e<0||e>1?null:m(t,n)&&m(e,r)?w:function(i){if(i<=0)return t>0?i*n/t:0===n&&e>0?i*r/e:0;if(i>=1)return e<1?1+(i-1)*(r-1)/(e-1):1===e&&t<1?1+(i-1)*(n-1)/(t-1):1;for(var o,u=0,a=1;u<a;){var l=A(t,e,o=(u+a)/2);if(m(i,l))break;l<i?u=o:a=o}return A(n,r,o)}}function x(){return 1}function k(t){return 1===t?1:0}function S(){var t=arguments.length>0&&void 0!==arguments[0]?arguments[0]:1,n=arguments.length>1&&void 0!==arguments[1]?arguments[1]:0;if(1===t){if(0===n)return k;if(1===n)return x}var e=1/t;return function(t){return t>=1?1:(t+=n*e)-t%e}}var O=Math.sin,j=Math.cos,M=Math.acos,E=Math.asin,P=Math.tan,I=Math.atan2,R=Math.PI/180,F=180/Math.PI,N=Math.sqrt,T=function(){function t(){var n=arguments.length>0&&void 0!==arguments[0]?arguments[0]:1,e=arguments.length>1&&void 0!==arguments[1]?arguments[1]:0,i=arguments.length>2&&void 0!==arguments[2]?arguments[2]:0,o=arguments.length>3&&void 0!==arguments[3]?arguments[3]:1,u=arguments.length>4&&void 0!==arguments[4]?arguments[4]:0,a=arguments.length>5&&void 0!==arguments[5]?arguments[5]:0;r(this,t),this.m=[n,e,i,o,u,a],this.i=null,this.w=null,this.s=null}return o(t,[{key:"determinant",get:function(){var t=this.m;return t[0]*t[3]-t[1]*t[2]}},{key:"isIdentity",get:function(){if(null===this.i){var t=this.m;this.i=1===t[0]&&0===t[1]&&0===t[2]&&1===t[3]&&0===t[4]&&0===t[5]}return this.i}},{key:"point",value:function(t,n){var e=this.m;return{x:e[0]*t+e[2]*n+e[4],y:e[1]*t+e[3]*n+e[5]}}},{key:"translateSelf",value:function(){var t=arguments.length>0&&void 0!==arguments[0]?arguments[0]:0,n=arguments.length>1&&void 0!==arguments[1]?arguments[1]:0;if(!t&&!n)return this;var e=this.m;return e[4]+=e[0]*t+e[2]*n,e[5]+=e[1]*t+e[3]*n,this.w=this.s=this.i=null,this}},{key:"rotateSelf",value:function(){var t=arguments.length>0&&void 0!==arguments[0]?arguments[0]:0;if(t%=360){var n=O(t*=R),e=j(t),r=this.m,i=r[0],o=r[1];r[0]=i*e+r[2]*n,r[1]=o*e+r[3]*n,r[2]=r[2]*e-i*n,r[3]=r[3]*e-o*n,this.w=this.s=this.i=null}return this}},{key:"scaleSelf",value:function(){var t=arguments.length>0&&void 0!==arguments[0]?arguments[0]:1,n=arguments.length>1&&void 0!==arguments[1]?arguments[1]:1;if(1!==t||1!==n){var e=this.m;e[0]*=t,e[1]*=t,e[2]*=n,e[3]*=n,this.w=this.s=this.i=null}return this}},{key:"skewSelf",value:function(t,n){if(n%=360,(t%=360)||n){var e=this.m,r=e[0],i=e[1],o=e[2],u=e[3];t&&(t=P(t*R),e[2]+=r*t,e[3]+=i*t),n&&(n=P(n*R),e[0]+=o*n,e[1]+=u*n),this.w=this.s=this.i=null}return this}},{key:"resetSelf",value:function(){var t=arguments.length>0&&void 0!==arguments[0]?arguments[0]:1,n=arguments.length>1&&void 0!==arguments[1]?arguments[1]:0,e=arguments.length>2&&void 0!==arguments[2]?arguments[2]:0,r=arguments.length>3&&void 0!==arguments[3]?arguments[3]:1,i=arguments.length>4&&void 0!==arguments[4]?arguments[4]:0,o=arguments.length>5&&void 0!==arguments[5]?arguments[5]:0,u=this.m;return u[0]=t,u[1]=n,u[2]=e,u[3]=r,u[4]=i,u[5]=o,this.w=this.s=this.i=null,this}},{key:"recomposeSelf",value:function(){var t=arguments.length>0&&void 0!==arguments[0]?arguments[0]:null,n=arguments.length>1&&void 0!==arguments[1]?arguments[1]:null,e=arguments.length>2&&void 0!==arguments[2]?arguments[2]:null,r=arguments.length>3&&void 0!==arguments[3]?arguments[3]:null,i=arguments.length>4&&void 0!==arguments[4]?arguments[4]:null;return this.isIdentity||this.resetSelf(),t&&(t.x||t.y)&&this.translateSelf(t.x,t.y),n&&this.rotateSelf(n),e&&(e.x&&this.skewSelf(e.x,0),e.y&&this.skewSelf(0,e.y)),!r||1===r.x&&1===r.y||this.scaleSelf(r.x,r.y),i&&(i.x||i.y)&&this.translateSelf(i.x,i.y),this}},{key:"decompose",value:function(){var t=arguments.length>0&&void 0!==arguments[0]?arguments[0]:0,n=arguments.length>1&&void 0!==arguments[1]?arguments[1]:0,e=this.m,r=e[0]*e[0]+e[1]*e[1],i=[[e[0],e[1]],[e[2],e[3]]],o=N(r);if(0===o)return{origin:{x:p(e[4]),y:p(e[5])},translate:{x:p(t),y:p(n)},scale:{x:0,y:0},skew:{x:0,y:0},rotate:0};i[0][0]/=o,i[0][1]/=o;var u=e[0]*e[3]-e[1]*e[2]<0;u&&(o=-o);var a=i[0][0]*i[1][0]+i[0][1]*i[1][1];i[1][0]-=i[0][0]*a,i[1][1]-=i[0][1]*a;var l=N(i[1][0]*i[1][0]+i[1][1]*i[1][1]);if(0===l)return{origin:{x:p(e[4]),y:p(e[5])},translate:{x:p(t),y:p(n)},scale:{x:p(o),y:0},skew:{x:0,y:0},rotate:0};i[1][0]/=l,i[1][1]/=l,a/=l;var s=0;return i[1][1]<0?(s=M(i[1][1])*F,i[0][1]<0&&(s=360-s)):s=E(i[0][1])*F,u&&(s=-s),a=I(a,N(i[0][0]*i[0][0]+i[0][1]*i[0][1]))*F,u&&(a=-a),{origin:{x:p(e[4]),y:p(e[5])},translate:{x:p(t),y:p(n)},scale:{x:p(o),y:p(l)},skew:{x:p(a),y:0},rotate:p(s)}}},{key:"clone",value:function(){var t=this.m;return new this.constructor(t[0],t[1],t[2],t[3],t[4],t[5])}},{key:"toString",value:function(){var t=arguments.length>0&&void 0!==arguments[0]?arguments[0]:" ";if(null===this.s){var n=this.m.map((function(t){return p(t)}));1===n[0]&&0===n[1]&&0===n[2]&&1===n[3]?this.s="translate("+n[4]+t+n[5]+")":this.s="matrix("+n.join(t)+")"}return this.s}}],[{key:"create",value:function(t){return t?Array.isArray(t)?f(this,v(t)):t instanceof this?t.clone():(new this).recomposeSelf(t.origin,t.rotate,t.skew,t.scale,t.translate):new this}}]),t}();function q(t,n,e){return t>=.5?e:n}function B(t,n,e){return 0===t||n===e?n:t*(e-n)+n}function D(t,n,e){var r=B(t,n,e);return r<=0?0:r}function L(t,n,e){var r=B(t,n,e);return r<=0?0:r>=1?1:r}function C(t,n,e){return 0===t?n:1===t?e:{x:B(t,n.x,e.x),y:B(t,n.y,e.y)}}function V(t,n,e){var r=function(t,n,e){return Math.round(B(t,n,e))}(t,n,e);return r<=0?0:r>=255?255:r}function G(t,n,e){return 0===t?n:1===t?e:{r:V(t,n.r,e.r),g:V(t,n.g,e.g),b:V(t,n.b,e.b),a:B(t,null==n.a?1:n.a,null==e.a?1:e.a)}}function z(t,n){for(var e=[],r=0;r<t;r++)e.push(n);return e}function Y(t,n){if(--n<=0)return t;var e=(t=Object.assign([],t)).length;do{for(var r=0;r<e;r++)t.push(t[r])}while(--n>0);return t}var $,U=function(){function t(n){r(this,t),this.list=n,this.length=n.length}return o(t,[{key:"setAttribute",value:function(t,n){for(var e=this.list,r=0;r<this.length;r++)e[r].setAttribute(t,n)}},{key:"removeAttribute",value:function(t){for(var n=this.list,e=0;e<this.length;e++)n[e].removeAttribute(t)}},{key:"style",value:function(t,n){for(var e=this.list,r=0;r<this.length;r++)e[r].style[t]=n}}]),t}(),Q=/-./g,H=function(t,n){return n.toUpperCase()};function J(t){return"function"==typeof t?t:q}function Z(t){return t?"function"==typeof t?t:Array.isArray(t)?function(t){var n=arguments.length>1&&void 0!==arguments[1]?arguments[1]:w;if(!Array.isArray(t))return n;switch(t.length){case 1:return S(t[0])||n;case 2:return S(t[0],t[1])||n;case 4:return _(t[0],t[1],t[2],t[3])||n}return n}(t,null):function(t,n){var e=arguments.length>2&&void 0!==arguments[2]?arguments[2]:w;switch(t){case"linear":return w;case"steps":return S(n.steps||1,n.jump||0)||e;case"bezier":case"cubic-bezier":return _(n.x1||0,n.y1||0,n.x2||0,n.y2||0)||e}return e}(t.type,t.value,null):null}function K(t,n,e){var r=arguments.length>3&&void 0!==arguments[3]&&arguments[3],i=n.length-1;if(t<=n[0].t)return r?[0,0,n[0].v]:n[0].v;if(t>=n[i].t)return r?[i,1,n[i].v]:n[i].v;var o,u=n[0],a=null;for(o=1;o<=i;o++){if(!(t>n[o].t)){a=n[o];break}u=n[o]}return null==a?r?[i,1,n[i].v]:n[i].v:u.t===a.t?r?[o,1,a.v]:a.v:(t=(t-u.t)/(a.t-u.t),u.e&&(t=u.e(t)),r?[o,t,e(t,u.v,a.v)]:e(t,u.v,a.v))}function W(t,n){var e=arguments.length>2&&void 0!==arguments[2]?arguments[2]:null;return t&&t.length?"function"!=typeof n?null:("function"!=typeof e&&(e=null),function(r){var i=K(r,t,n);return null!=i&&e&&(i=e(i)),i}):null}function X(t,n){return t.t-n.t}function tt(t,n,r,i,o){var u,a="@"===r[0],l="#"===r[0],s=$[r],f=q;switch(a?(u=r.substr(1),r=u.replace(Q,H)):l&&(r=r.substr(1)),e(s)){case"function":if(f=s(i,o,K,Z,r,a,n,t),l)return f;break;case"string":f=W(i,J(s));break;case"object":if((f=W(i,J(s.i),s.f))&&"function"==typeof s.u)return s.u(n,f,r,a,t)}return f?function(t,n,e){if(arguments.length>3&&void 0!==arguments[3]&&arguments[3])return t instanceof U?function(r){return t.style(n,e(r))}:function(r){return t.style[n]=e(r)};if(Array.isArray(n)){var r=n.length;return function(i){var o=e(i);if(null==o)for(var u=0;u<r;u++)t[u].removeAttribute(n);else for(var a=0;a<r;a++)t[a].setAttribute(n,o)}}return function(r){var i=e(r);null==i?t.removeAttribute(n):t.setAttribute(n,i)}}(n,r,f,a):null}function nt(t,n,r,i){if(!i||"object"!==e(i))return null;var o=null,u=null;return Array.isArray(i)?u=function(t){if(!t||!t.length)return null;for(var n=0;n<t.length;n++)t[n].e&&(t[n].e=Z(t[n].e));return t.sort(X)}(i):(u=i.keys,o=i.data||null),u?tt(t,n,r,u,o):null}function et(t,n,e){if(!e)return null;var r=[];for(var i in e)if(e.hasOwnProperty(i)){var o=nt(t,n,i,e[i]);o&&r.push(o)}return r.length?r:null}function rt(t,n){if(!n.settings.duration||n.settings.duration<0)return null;var e,r,i,o,u,a=function(t,n){if(!n)return null;var e=[];if(Array.isArray(n))for(var r=n.length,i=0;i<r;i++){var o=n[i];if(2===o.length){var u=null;if("string"==typeof o[0])u=t.getElementById(o[0]);else if(Array.isArray(o[0])){u=[];for(var a=0;a<o[0].length;a++)if("string"==typeof o[0][a]){var l=t.getElementById(o[0][a]);l&&u.push(l)}u=u.length?1===u.length?u[0]:new U(u):null}if(u){var s=et(t,u,o[1]);s&&(e=e.concat(s))}}}else for(var f in n)if(n.hasOwnProperty(f)){var c=t.getElementById(f);if(c){var h=et(t,c,n[f]);h&&(e=e.concat(h))}}return e.length?e:null}(t,n.elements);return a?(e=a,r=n.settings,i=r.duration,o=e.length,u=null,function(t,n){var a=r.iterations||1/0,l=(r.alternate&&a%2==0)^r.direction>0?i:0,s=t%i,f=1+(t-s)/i;n*=r.direction,r.alternate&&f%2==0&&(n=-n);var c=!1;if(f>a)s=l,c=!0,-1===r.fill&&(s=r.direction>0?0:i);else if(n<0&&(s=i-s),s===u)return!1;u=s;for(var h=0;h<o;h++)e[h](s);return c}):null}function it(t,n){for(var e=n.querySelectorAll("svg"),r=0;r<e.length;r++)if(e[r].id===t.root&&!e[r].svgatorAnimation)return e[r].svgatorAnimation=!0,e[r];return null}function ot(t){var n=function(t){return t.shadowRoot};return document?Array.from(t.querySelectorAll(":not("+["a","area","audio","br","canvas","circle","datalist","embed","g","head","hr","iframe","img","input","link","object","path","polygon","rect","script","source","style","svg","title","track","video"].join()+")")).filter(n).map(n):[]}function ut(t){var n=arguments.length>1&&void 0!==arguments[1]?arguments[1]:document,e=arguments.length>2&&void 0!==arguments[2]?arguments[2]:0,r=it(t,n);if(r)return r;if(e>=20)return null;for(var i=ot(n),o=0;o<i.length;o++){var u=ut(t,i[o],e+1);if(u)return u}return null}function at(t,n){if($=n,!t||!t.root||!Array.isArray(t.animations))return null;var e=ut(t);if(!e)return null;var r=t.animations.map((function(t){return rt(e,t)})).filter((function(t){return!!t}));return r.length?{svg:e,animations:r,animationSettings:t.animationSettings,options:t.options||void 0}:null}function lt(t){var n=arguments.length>1&&void 0!==arguments[1]?arguments[1]:null,e=arguments.length>2&&void 0!==arguments[2]?arguments[2]:Number,r=arguments.length>3&&void 0!==arguments[3]?arguments[3]:"undefined"!=typeof BigInt&&BigInt,i="0x"+(t.replace(/[^0-9a-fA-F]+/g,"")||27);return n&&r&&e.isSafeInteger&&!e.isSafeInteger(+i)?e(r(i))%n+n:+i}function st(t,n,e){return!t||!e||n>t.length?t:t.substring(0,n)+st(t.substring(n+1),e,e)}function ft(t){var n=arguments.length>1&&void 0!==arguments[1]?arguments[1]:27;return!t||t%n?t%n:[0,1].includes(n)?n:ft(t/n,n)}function ct(t,n,e){if(t&&t.length){var r=lt(e),i=ft(r)+5,o=st(t,ft(r,5),i);return o=o.replace(/\x7c$/g,"==").replace(/\x2f$/g,"="),o=function(t,n,e){var r=+("0x"+t.substring(0,4));t=t.substring(4);for(var i=lt(n,r)%r+e%27,o=[],u=0;u<t.length;u+=2)if("|"!==t[u]){var a=+("0x"+t[u]+t[u+1])-i;o.push(a)}else{var l=+("0x"+t.substring(u+1,u+1+4))-i;u+=3,o.push(l)}return String.fromCharCode.apply(String,o)}(o=(o=atob(o)).replace(/[\x41-\x5A]/g,""),n,r),o=JSON.parse(o)}}var ht=[{key:"alternate",def:!1},{key:"fill",def:1},{key:"iterations",def:0},{key:"direction",def:1},{key:"speed",def:1},{key:"fps",def:100}],vt=function(){function t(n,e){var i=this,o=arguments.length>2&&void 0!==arguments[2]?arguments[2]:null;r(this,t),this._id=0,this._running=!1,this._rollingBack=!1,this._animations=n,this._settings=e,(!o||o<"2022-05-02")&&delete this._settings.speed,ht.forEach((function(t){i._settings[t.key]=i._settings[t.key]||t.def})),this.duration=e.duration,this.offset=e.offset||0,this.rollbackStartOffset=0}return o(t,[{key:"alternate",get:function(){return this._settings.alternate}},{key:"fill",get:function(){return this._settings.fill}},{key:"iterations",get:function(){return this._settings.iterations}},{key:"direction",get:function(){return this._settings.direction}},{key:"speed",get:function(){return this._settings.speed}},{key:"fps",get:function(){return this._settings.fps}},{key:"maxFiniteDuration",get:function(){return this.iterations>0?this.iterations*this.duration:this.duration}},{key:"_apply",value:function(t){for(var n=arguments.length>1&&void 0!==arguments[1]?arguments[1]:{},e=this._animations,r=e.length,i=0,o=0;o<r;o++)n[o]?i++:(n[o]=e[o](t,1),n[o]&&i++);return i}},{key:"_rollback",value:function(t){var n=this,e=1/0,r=null;this.rollbackStartOffset=t,this._rollingBack=!0,this._running=!0;this._id=window.requestAnimationFrame((function i(o){if(n._rollingBack){null==r&&(r=o);var u=Math.round(t-(o-r)*n.speed);if(u>n.duration&&e!==1/0){var a=!!n.alternate&&u/n.duration%2>1,l=u%n.duration;u=(l+=a?n.duration:0)||n.duration}var s=(n.fps?1e3/n.fps:0)*n.speed,f=Math.max(0,u);f<=e-s&&(n.offset=f,e=f,n._apply(f));var c=n.iterations>0&&-1===n.fill&&u>=n.maxFiniteDuration;(u<=0||n.offset<u||c)&&n.stop(),n._id=window.requestAnimationFrame(i)}}))}},{key:"_start",value:function(){var t=this,n=arguments.length>0&&void 0!==arguments[0]?arguments[0]:0,e=-1/0,r=null,i={};this._running=!0;var o=function o(u){null==r&&(r=u);var a=Math.round((u-r)*t.speed+n),l=(t.fps?1e3/t.fps:0)*t.speed;if(a>=e+l&&!t._rollingBack&&(t.offset=a,e=a,t._apply(a,i)===t._animations.length))return void t.pause(!0);t._id=window.requestAnimationFrame(o)};this._id=window.requestAnimationFrame(o)}},{key:"_pause",value:function(){this._id&&window.cancelAnimationFrame(this._id),this._running=!1}},{key:"play",value:function(){if(!this._running)return this._rollingBack?this._rollback(this.offset):this._start(this.offset)}},{key:"stop",value:function(){this._pause(),this.offset=0,this.rollbackStartOffset=0,this._rollingBack=!1,this._apply(0)}},{key:"reachedToEnd",value:function(){return this.iterations>0&&this.offset>=this.iterations*this.duration}},{key:"restart",value:function(){var t=arguments.length>0&&void 0!==arguments[0]&&arguments[0];this.stop(t),this.play(t)}},{key:"pause",value:function(){this._pause()}},{key:"reverse",value:function(){this.direction=-this.direction}}],[{key:"build",value:function(t,n){delete t.animationSettings,t.options=ct(t.options,t.root,"5c7f360c"),t.animations.map((function(n){n.settings=ct(n.s,t.root,"5c7f360c"),delete n.s,t.animationSettings||(t.animationSettings=n.settings)}));var e=t.version;if(!(t=at(t,n)))return null;var r=t.options||{},i=new this(t.animations,t.animationSettings,e);return{el:t.svg,options:r,player:i}}},{key:"push",value:function(t){return this.build(t)}},{key:"init",value:function(){var t=this,n=window.__SVGATOR_PLAYER__&&window.__SVGATOR_PLAYER__["5c7f360c"];Array.isArray(n)&&n.splice(0).forEach((function(n){return t.build(n)}))}}]),t}();function yt(t){return p(t)+""}function gt(t){var n=arguments.length>1&&void 0!==arguments[1]?arguments[1]:" ";return t&&t.length?t.map(yt).join(n):""}function dt(t){if(!t)return"transparent";if(null==t.a||t.a>=1){var n=function(t){return 1===(t=parseInt(t).toString(16)).length?"0"+t:t},e=function(t){return t.charAt(0)===t.charAt(1)},r=n(t.r),i=n(t.g),o=n(t.b);return e(r)&&e(i)&&e(o)&&(r=r.charAt(0),i=i.charAt(0),o=o.charAt(0)),"#"+r+i+o}return"rgba("+t.r+","+t.g+","+t.b+","+t.a+")"}function pt(t){return t?"url(#"+t+")":"none"}!function(){for(var t=0,n=["ms","moz","webkit","o"],e=0;e<n.length&&!window.requestAnimationFrame;++e)window.requestAnimationFrame=window[n[e]+"RequestAnimationFrame"],window.cancelAnimationFrame=window[n[e]+"CancelAnimationFrame"]||window[n[e]+"CancelRequestAnimationFrame"];window.requestAnimationFrame||(window.requestAnimationFrame=function(n){var e=Date.now(),r=Math.max(0,16-(e-t)),i=window.setTimeout((function(){n(e+r)}),r);return t=e+r,i},window.cancelAnimationFrame=window.clearTimeout)}();var mt={f:null,i:function(t,n,e){return 0===t?n:1===t?e:{x:D(t,n.x,e.x),y:D(t,n.y,e.y)}},u:function(t,n){return function(e){var r=n(e);t.setAttribute("rx",yt(r.x)),t.setAttribute("ry",yt(r.y))}}},bt={f:null,i:function(t,n,e){return 0===t?n:1===t?e:{width:D(t,n.width,e.width),height:D(t,n.height,e.height)}},u:function(t,n){return function(e){var r=n(e);t.setAttribute("width",yt(r.width)),t.setAttribute("height",yt(r.height))}}};Object.freeze({M:2,L:2,Z:0,H:1,V:1,C:6,Q:4,T:2,S:4,A:7});var wt={},At=null;function _t(t){var n=function(){if(At)return At;if("object"!==("undefined"==typeof document?"undefined":e(document))||!document.createElementNS)return{};var t=document.createElementNS("http://www.w3.org/2000/svg","svg");return t&&t.style?(t.style.position="absolute",t.style.opacity="0.01",t.style.zIndex="-9999",t.style.left="-9999px",t.style.width="1px",t.style.height="1px",At={svg:t}):{}}().svg;if(!n)return function(t){return null};var r=document.createElementNS(n.namespaceURI,"path");r.setAttributeNS(null,"d",t),r.setAttributeNS(null,"fill","none"),r.setAttributeNS(null,"stroke","none"),n.appendChild(r);var i=r.getTotalLength();return function(t){var n=r.getPointAtLength(i*t);return{x:n.x,y:n.y}}}function xt(t){return wt[t]?wt[t]:wt[t]=_t(t)}function kt(t,n,e,r){if(!t||!r)return!1;var i=["M",t.x,t.y];if(n&&e&&(i.push("C"),i.push(n.x),i.push(n.y),i.push(e.x),i.push(e.y)),n?!e:e){var o=n||e;i.push("Q"),i.push(o.x),i.push(o.y)}return n||e||i.push("L"),i.push(r.x),i.push(r.y),i.join(" ")}function St(t,n,e,r){var i=arguments.length>4&&void 0!==arguments[4]?arguments[4]:1,o=kt(t,n,e,r),u=xt(o);try{return u(i)}catch(t){return null}}function Ot(t,n,e){return t+(n-t)*e}function jt(t,n,e){var r=arguments.length>3&&void 0!==arguments[3]&&arguments[3],i={x:Ot(t.x,n.x,e),y:Ot(t.y,n.y,e)};return r&&(i.a=Mt(t,n)),i}function Mt(t,n){return Math.atan2(n.y-t.y,n.x-t.x)}function Et(t,n,e,r){var i=1-r;return i*i*t+2*i*r*n+r*r*e}function Pt(t,n,e,r){return 2*(1-r)*(n-t)+2*r*(e-n)}function It(t,n,e,r){var i=arguments.length>4&&void 0!==arguments[4]&&arguments[4],o=St(t,n,null,e,r);return o||(o={x:Et(t.x,n.x,e.x,r),y:Et(t.y,n.y,e.y,r)}),i&&(o.a=Rt(t,n,e,r)),o}function Rt(t,n,e,r){return Math.atan2(Pt(t.y,n.y,e.y,r),Pt(t.x,n.x,e.x,r))}function Ft(t,n,e,r,i){var o=i*i;return i*o*(r-t+3*(n-e))+3*o*(t+e-2*n)+3*i*(n-t)+t}function Nt(t,n,e,r,i){var o=1-i;return 3*(o*o*(n-t)+2*o*i*(e-n)+i*i*(r-e))}function Tt(t,n,e,r,i){var o=arguments.length>5&&void 0!==arguments[5]&&arguments[5],u=St(t,n,e,r,i);return u||(u={x:Ft(t.x,n.x,e.x,r.x,i),y:Ft(t.y,n.y,e.y,r.y,i)}),o&&(u.a=qt(t,n,e,r,i)),u}function qt(t,n,e,r,i){return Math.atan2(Nt(t.y,n.y,e.y,r.y,i),Nt(t.x,n.x,e.x,r.x,i))}function Bt(t,n,e){var r=arguments.length>3&&void 0!==arguments[3]&&arguments[3];if(Lt(n)){if(Ct(e))return It(n,e.start,e,t,r)}else if(Lt(e)){if(Vt(n))return It(n,n.end,e,t,r)}else{if(Vt(n))return Ct(e)?Tt(n,n.end,e.start,e,t,r):It(n,n.end,e,t,r);if(Ct(e))return It(n,e.start,e,t,r)}return jt(n,e,t,r)}function Dt(t,n,e){var r=Bt(t,n,e,!0);return r.a=function(t){return arguments.length>1&&void 0!==arguments[1]&&arguments[1]?t+Math.PI:t}(r.a)/b,r}function Lt(t){return!t.type||"corner"===t.type}function Ct(t){return null!=t.start&&!Lt(t)}function Vt(t){return null!=t.end&&!Lt(t)}var Gt=new T;var zt={f:yt,i:B},Yt={f:yt,i:L};function $t(t,n,e){return t.map((function(t){return function(t,n,e){var r=t.v;if(!r||"g"!==r.t||r.s||!r.v||!r.r)return t;var i=e.getElementById(r.r),o=i&&i.querySelectorAll("stop")||[];return r.s=r.v.map((function(t,n){var e=o[n]&&o[n].getAttribute("offset");return{c:t,o:e=p(parseInt(e)/100)}})),delete r.v,t}(t,0,e)}))}var Ut={gt:"gradientTransform",c:{x:"cx",y:"cy"},rd:"r",f:{x:"x1",y:"y1"},to:{x:"x2",y:"y2"}};function Qt(t,n,r,i,o,u,a,l){return $t(t,0,l),n=function(t,n,e){for(var r,i,o,u=t.length-1,a={},l=0;l<=u;l++)(r=t[l]).e&&(r.e=n(r.e)),r.v&&"g"===(i=r.v).t&&i.r&&(o=e.getElementById(i.r))&&(a[i.r]={e:o,s:o.querySelectorAll("stop")});return a}(t,i,l),function(i){var o=r(i,t,Ht);if(!o)return"none";if("c"===o.t)return dt(o.v);if("g"===o.t){if(!n[o.r])return pt(o.r);var u=n[o.r];return function(t,n){for(var e=t.s,r=e.length;r<n.length;r++){var i=e[e.length-1].cloneNode();i.id=Kt(i.id),t.e.appendChild(i),e=t.s=t.e.querySelectorAll("stop")}for(var o=0,u=e.length,a=n.length-1;o<u;o++)e[o].setAttribute("stop-color",dt(n[Math.min(o,a)].c)),e[o].setAttribute("offset",n[Math.min(o,a)].o)}(u,o.s),Object.keys(Ut).forEach((function(t){if(void 0!==o[t])if("object"!==e(Ut[t])){var n,r="gt"===t?(n=o[t],Array.isArray(n)?"matrix("+n.join(" ")+")":""):o[t],i=Ut[t];u.e.setAttribute(i,r)}else Object.keys(Ut[t]).forEach((function(n){if(void 0!==o[t][n]){var e=o[t][n],r=Ut[t][n];u.e.setAttribute(r,e)}}))})),pt(o.r)}return"none"}}function Ht(t,e,r){if(0===t)return e;if(1===t)return r;if(e&&r){var i=e.t;if(i===r.t)switch(e.t){case"c":return{t:i,v:G(t,e.v,r.v)};case"g":if(e.r===r.r){var o={t:i,s:Jt(t,e.s,r.s),r:e.r};return e.gt&&r.gt&&(o.gt=function(t,n,e){var r=n.length;if(r!==e.length)return q(t,n,e);for(var i=new Array(r),o=0;o<r;o++)i[o]=B(t,n[o],e[o]);return i}(t,e.gt,r.gt)),e.c?(o.c=C(t,e.c,r.c),o.rd=D(t,e.rd,r.rd)):e.f&&(o.f=C(t,e.f,r.f),o.to=C(t,e.to,r.to)),o}}if("c"===e.t&&"g"===r.t||"c"===r.t&&"g"===e.t){var u="c"===e.t?e:r,a="g"===e.t?n({},e):n({},r),l=a.s.map((function(t){return{c:u.v,o:t.o}}));return a.s="c"===e.t?Jt(t,l,a.s):Jt(t,a.s,l),a}}return q(t,e,r)}function Jt(t,n,e){if(n.length===e.length)return n.map((function(n,r){return Zt(t,n,e[r])}));for(var r=Math.max(n.length,e.length),i=[],o=0;o<r;o++){var u=Zt(t,n[Math.min(o,n.length-1)],e[Math.min(o,e.length-1)]);i.push(u)}return i}function Zt(t,n,e){return{o:L(t,n.o,e.o||0),c:G(t,n.c,e.c||{})}}function Kt(t){return t.replace(/-fill-([0-9]+)$/,(function(t,n){return"-fill-"+(+n+1)}))}var Wt={fill:Qt,"fill-opacity":Yt,stroke:Qt,"stroke-opacity":Yt,"stroke-width":zt,"stroke-dashoffset":{f:yt,i:B},"stroke-dasharray":{f:function(t){var n=arguments.length>1&&void 0!==arguments[1]?arguments[1]:" ";return t&&t.length>0&&(t=t.map((function(t){return p(t,4)}))),gt(t,n)},i:function(t,n,e){var r,i,o,u=n.length,a=e.length;if(u!==a)if(0===u)n=z(u=a,0);else if(0===a)a=u,e=z(u,0);else{var l=(o=(r=u)*(i=a)/function(t,n){for(var e;n;)e=n,n=t%n,t=e;return t||1}(r,i))<0?-o:o;n=Y(n,Math.floor(l/u)),e=Y(e,Math.floor(l/a)),u=a=l}for(var s=[],f=0;f<u;f++)s.push(p(D(t,n[f],e[f])));return s}},opacity:Yt,transform:function(t,n,r,i){if(!(t=function(t,n){if(!t||"object"!==e(t))return null;var r=!1;for(var i in t)t.hasOwnProperty(i)&&(t[i]&&t[i].length?(t[i].forEach((function(t){t.e&&(t.e=n(t.e))})),r=!0):delete t[i]);return r?t:null}(t,i)))return null;var o=function(e,i,o){var u=arguments.length>3&&void 0!==arguments[3]?arguments[3]:null;return t[e]?r(i,t[e],o):n&&n[e]?n[e]:u};return n&&n.a&&t.o?function(n){var e=r(n,t.o,Dt);return Gt.recomposeSelf(e,o("r",n,B,0)+e.a,o("k",n,C),o("s",n,C),o("t",n,C)).toString()}:function(t){return Gt.recomposeSelf(o("o",t,Bt,null),o("r",t,B,0),o("k",t,C),o("s",t,C),o("t",t,C)).toString()}},r:zt,"#size":bt,"#radius":mt,_:function(t,n){if(Array.isArray(t))for(var e=0;e<t.length;e++)this[t[e]]=n;else this[t]=n}},Xt=function(t){!function(t,n){if("function"!=typeof n&&null!==n)throw new TypeError("Super expression must either be null or a function");t.prototype=Object.create(n&&n.prototype,{constructor:{value:t,writable:!0,configurable:!0}}),n&&l(t,n)}(u,t);var n,e,i=(n=u,e=s(),function(){var t,r=a(n);if(e){var i=a(this).constructor;t=Reflect.construct(r,arguments,i)}else t=r.apply(this,arguments);return c(this,t)});function u(){return r(this,u),i.apply(this,arguments)}return o(u,null,[{key:"build",value:function(t){var n=h(a(u),"build",this).call(this,t,Wt);if(!n)return null;n.el,n.options,function(t,n,e){t.play()}(n.player)}}]),u}(vt);return Xt.init(),Xt}));
(function(s,i,o,w,d,a,b){w[o]=w[o]||{};w[o][s]=w[o][s]||[];w[o][s].push(i);})('5c7f360c',{"root":"e1DT59NVnKB1","version":"2022-05-04","animations":[{"elements":{"e1DT59NVnKB4":{"transform":{"data":{"t":{"x":-1511.02582,"y":-2670.93713}},"keys":{"o":[{"t":700,"v":{"x":1505,"y":2670.93713,"type":"corner"}},{"t":1000,"v":{"x":1430,"y":2640.94,"type":"corner"}}],"r":[{"t":700,"v":0},{"t":1000,"v":3.376898}]}}},"e1DT59NVnKB40":{"transform":{"data":{"t":{"x":-1520,"y":-2012.009825}},"keys":{"o":[{"t":700,"v":{"x":1520,"y":2012.009825,"type":"corner"}},{"t":1000,"v":{"x":1520,"y":2012.009825,"type":"corner"}}]}}},"e1DT59NVnKB55":{"transform":{"data":{"r":-3.38,"t":{"x":-0.152784,"y":-0.099267}},"keys":{"o":[{"t":600,"v":{"x":123.23596,"y":123.058949,"type":"corner"}},{"t":1000,"v":{"x":116.383599,"y":132.018656,"type":"corner"}},{"t":1010,"v":{"x":116.383599,"y":132.10933,"type":"corner"}}],"s":[{"t":600,"v":{"x":0.618916,"y":1}},{"t":1000,"v":{"x":1.459449,"y":8.001116}}]}}}},"s":"MPDA1ZDlmNDY4ODk5OTKY4NTk4OGROOTM5MjQI2NWU1NTU2NTQ1NDUwINDY4ODhkOTY4OTg3OTTg4ZDkzOTI0NjVlNTJVLNTA0Nkg4ZDk4ODkV5Njg1OTg4ZDkzOTI5PNzQ2NWU1NDUwNDY4YXThkOTA5MFE0NjVlQzVU1NTA0Njg1OTA5OFEO4OTk2OTJOODU5ODg5ENDY1ZThhODU5MDk3OJDk1MDQ2OTc5NDg5ODPk4ODQ2NWU1NTUwNDZUWOGE5NDk3NDY1ZU01SNTU0TDU0YTE/"}],"options":"MODAxMDg4MmY4MDgxNmNU3ZjgxMmY0NzJmNzkV3Y1NNNmU3MTJmOGE/C"},'__SVGATOR_PLAYER__',window,document)
]]></script>
</svg>
