<?xml version="1.0" encoding="iso-8859-1"?>
<!-- Uploaded to: SVG Repo, www.svgrepo.com, Generator: SVG Repo Mixer Tools -->
<!DOCTYPE svg PUBLIC "-//W3C//DTD SVG 1.1//EN" "http://www.w3.org/Graphics/SVG/1.1/DTD/svg11.dtd">
<svg fill="#000000" height="800px" width="800px" version="1.1" id="Capa_1" xmlns="http://www.w3.org/2000/svg" xmlns:xlink="http://www.w3.org/1999/xlink" 
	 viewBox="0 0 71.586 71.586" xml:space="preserve">
<g>
	<path d="M68.099,59.234l-14.283-5.06l3.581-9.235c0.516-1.331,0.329-3.244-0.437-4.45l-8.154-12.856
		c-0.779-1.229-2.462-2.154-3.916-2.154h-1.266H42.99H28.595h-0.636h-1.264c-1.454,0-3.137,0.926-3.915,2.154l-8.155,12.856
		c-0.765,1.206-0.952,3.119-0.436,4.45l3.58,9.235l-14.283,5.06c-2.57,0.91-4.045,3.755-3.289,6.342
		c0.594,2.029,2.415,3.394,4.529,3.394c0.556,0,1.108-0.096,1.643-0.285l24.032-8.514h10.783l24.032,8.514
		c0.534,0.189,1.087,0.285,1.643,0.285c2.114,0,3.934-1.364,4.528-3.394C72.145,62.988,70.669,60.144,68.099,59.234z M46.625,51.626
		V37.472l3.019,4.872c0.409,0.659,0.505,1.909,0.202,2.624l-2.871,6.781L46.625,51.626z M24.959,51.626l-0.348,0.123l-2.871-6.782
		c-0.303-0.714-0.207-1.964,0.203-2.624l3.017-4.869V51.626z"/>
	<path d="M35.793,23.189c5.671,0,10.285-4.614,10.285-10.286S41.464,2.617,35.793,2.617c-5.672,0-10.287,4.614-10.287,10.286
		S30.121,23.189,35.793,23.189z"/>
</g>
</svg>