<svg id="eZPf9Ykp8jw1" xmlns="http://www.w3.org/2000/svg" xmlns:xlink="http://www.w3.org/1999/xlink" viewBox="0 0 4.39 49.737" shape-rendering="geometricPrecision" text-rendering="geometricPrecision" style="background-color:#fff"><g transform="matrix(.445016 0 0 1-8.892219-.000001)"><g transform="matrix(.520913 0 0 1 11.914181 0.000001)"><g><rect width="8.232" height="49.737" rx="0" ry="0" transform="translate(26.193 0)" fill="#030104"/><rect width="8.233" height="49.737" rx="0" ry="0" transform="translate(15.504 0)" fill="#030104"/></g></g><rect width="3.546911" height="2.806568" rx="0" ry="0" transform="matrix(.53 0 0 1 27.966748 4.470518)" stroke-width="0"/><rect width="3.546911" height="2.806568" rx="0" ry="0" transform="matrix(.563871 0 0 1 25.9645 7.277086)" stroke-width="0"/><rect width="3.546911" height="2.806568" rx="0" ry="0" transform="matrix(.563871 0 0 1 23.9645 16.000001)" stroke-width="0"/><rect width="3.546911" height="2.806568" rx="0" ry="0" transform="matrix(.563871 0 0 1 23.9645 0.000001)" stroke-width="0"/><rect width="3.546911" height="2.806568" rx="0" ry="0" transform="matrix(.563871 0 0 1 23.9645 8.000001)" stroke-width="0"/><rect width="3.546911" height="2.806568" rx="0" ry="0" transform="matrix(.563871 0 0 1 23.9645 24.000001)" stroke-width="0"/><rect width="3.546911" height="2.806568" rx="0" ry="0" transform="matrix(.563871 0 0 1 23.9645 32.000001)" stroke-width="0"/><rect width="3.546911" height="2.806568" rx="0" ry="0" transform="matrix(.563871 0 0 1 23.9645 40.000001)" stroke-width="0"/><rect width="3.546911" height="2.806568" rx="0" ry="0" transform="matrix(.563871 0 0 1 23.9645 48.000001)" stroke-width="0"/><rect width="3.546911" height="2.806568" rx="0" ry="0" transform="matrix(.563871 0 0 1 21.981721 7.277085)" stroke-width="0"/><rect width="3.546911" height="2.806568" rx="0" ry="0" transform="matrix(.563871 0 0 1 19.981721 4.470517)" stroke-width="0"/></g><path d="" fill="none" stroke="#3f5787" stroke-width="0.5"/><path d="" fill="none" stroke="#3f5787" stroke-width="0.5"/></svg>
